<?xml version="1.0" standalone="no"?>
<!DOCTYPE svg PUBLIC "-//W3C//DTD SVG 20010904//EN"
 "http://www.w3.org/TR/2001/REC-SVG-20010904/DTD/svg10.dtd">
<svg version="1.0" xmlns="http://www.w3.org/2000/svg"
 width="1024.000000pt" height="1024.000000pt" viewBox="0 0 1024.000000 1024.000000"
 preserveAspectRatio="xMidYMid meet">
<metadata>
Created by potrace 1.14, written by Peter Selinger 2001-2017
</metadata>
<g transform="translate(0.000000,1024.000000) scale(0.100000,-0.100000)"
fill="#000000" stroke="none">
<path d="M2292 9173 c-236 -36 -442 -191 -542 -408 -66 -145 -62 1 -61 -2137
0 -1063 0 -1951 0 -1974 1 -58 49 -126 108 -155 45 -22 53 -22 452 -22 357 0
411 2 446 17 49 21 82 51 105 96 17 33 17 124 16 1758 -1 1716 -1 1722 19
1722 132 3 4282 -1 4313 -4 24 -3 62 -7 85 -11 23 -4 56 -9 72 -11 67 -11 195
-44 280 -74 498 -177 898 -575 1068 -1066 30 -85 48 -156 84 -324 11 -54 14
-2796 2 -2855 -5 -27 -11 -63 -14 -80 -7 -49 -13 -75 -45 -187 -141 -503 -536
-932 -1041 -1132 -86 -34 -216 -73 -290 -86 -32 -6 -69 -13 -81 -15 -13 -2
-41 -7 -63 -11 -22 -4 -545 -8 -1163 -9 l-1122 -2 -47 -29 c-30 -19 -55 -45
-70 -74 l-24 -44 3 -422 3 -422 31 -39 c17 -21 48 -48 70 -61 l39 -22 1165 3
c641 2 1176 6 1190 9 14 4 51 9 84 13 32 4 68 8 80 10 11 2 39 6 61 10 22 3
56 10 75 15 19 5 46 11 60 14 56 10 191 47 285 79 486 165 916 453 1265 847
49 56 224 290 256 343 16 27 42 70 57 95 50 84 164 324 201 425 34 92 101 311
111 367 3 14 7 34 9 45 5 26 34 200 40 245 27 185 28 2871 2 3040 -2 14 -7 47
-11 73 -4 27 -8 58 -11 70 -2 12 -6 39 -9 62 -4 22 -11 58 -17 80 -5 22 -12
48 -13 57 -11 53 -59 218 -90 302 -223 616 -672 1153 -1247 1490 -89 52 -269
146 -281 146 -2 0 -26 10 -53 22 -27 12 -51 23 -54 23 -3 1 -16 6 -30 12 -32
14 -207 73 -228 78 -9 3 -51 13 -92 25 -77 20 -241 54 -320 65 -25 3 -56 8
-70 10 -101 16 -464 18 -2583 19 -1780 1 -2408 -2 -2465 -11z"/>
<path d="M4976 6175 c-127 -33 -229 -139 -252 -260 -4 -22 -7 -290 -7 -596 l0
-557 -360 -354 c-197 -194 -425 -418 -507 -498 -82 -80 -357 -351 -612 -602
-855 -843 -810 -800 -829 -780 -25 26 -882 869 -1052 1034 -175 171 -208 191
-312 192 -80 0 -139 -22 -195 -73 -134 -122 -445 -442 -462 -476 -13 -23 -23
-68 -26 -107 -9 -128 -27 -107 694 -815 262 -256 992 -974 1084 -1064 101
-101 150 -134 222 -153 85 -21 164 -8 228 39 19 14 209 197 423 408 214 210
453 444 531 521 77 76 344 337 591 581 248 243 516 507 596 586 81 79 316 311
523 514 l377 370 482 5 482 5 57 27 c68 31 140 102 171 167 l22 46 0 800 0
800 -28 57 c-45 92 -131 161 -227 184 -54 12 -1565 11 -1614 -1z"/>
</g>
</svg>
