<svg xmlns="http://www.w3.org/2000/svg" xmlns:xlink="http://www.w3.org/1999/xlink" width="247" height="210.357" viewBox="0 0 247 210.357">
  <defs>
    <linearGradient id="linear-gradient" x1="0.5" y1="0.862" x2="0.5" y2="-0.082" gradientUnits="objectBoundingBox">
      <stop offset="0" stop-color="#3ea5ff"/>
      <stop offset="1" stop-color="#d100e8"/>
    </linearGradient>
  </defs>
  <g id="Layer_1" data-name="Layer 1" transform="translate(-0.5 -1.336)">
    <g id="Group_6" data-name="Group 6">
      <path id="Path_3" data-name="Path 3" d="M159.637,135.358a9.448,9.448,0,0,0,9.448-9.449V85.848a9.448,9.448,0,0,0-9.448-9.448H121.93a9.448,9.448,0,0,0-9.448,9.448V116.67L54.08,174.2l-5.073-4.969L23.283,144.017a7.3,7.3,0,0,0-10.147,0L2.587,154.349a6.96,6.96,0,0,0,0,9.939l25.724,25.218q10.024,9.8,20.025,19.615c3.107,3.042,7.744,3.677,11.164.317l15.265-14.962,60.667-59.118Z" fill="url(#linear-gradient)"/>
      <path id="Path_4" data-name="Path 4" d="M172.613,1.336H54.169A18.454,18.454,0,0,0,35.586,19.55v98.244a4.951,4.951,0,0,0,4.959,4.921H59.479a4.951,4.951,0,0,0,4.959-4.921v-87.6H172.3c24.946,0,45.352,20.027,45.352,44.507v62.21c0,24.48-20.417,44.508-45.363,44.508H120.2a4.986,4.986,0,0,0-5.018,4.922v19.007a5,5,0,0,0,5.045,4.923h52.39c41.191,0,74.887-32.976,74.887-73.283V74.619C247.5,34.313,213.8,1.336,172.613,1.336Z" fill="url(#linear-gradient)"/>
    </g>
  </g>
</svg>
